<svg width="19" height="19" viewBox="0 0 19 19" fill="none" xmlns="http://www.w3.org/2000/svg">
<path fill-rule="evenodd" clip-rule="evenodd" d="M2 9.5C2 5.35786 5.35786 2 9.5 2C11.6608 2 13.6082 2.91301 14.9779 4.37715L8.75247 10.3526L6.16416 7.88191L4.78321 9.32862L8.7563 13.1211L16.1487 6.02562L17.5791 4.5C17.4431 4.28069 17.2985 4.06735 17.1456 3.86045C15.4172 1.52061 12.6361 0 9.5 0C4.25329 0 0 4.25329 0 9.5C0 14.7467 4.25329 19 9.5 19C14.7467 19 19 14.7467 19 9.5H17C17 13.6421 13.6421 17 9.5 17C5.35786 17 2 13.6421 2 9.5Z" fill="url(#paint0_linear_748_79)"/>
<defs>
<linearGradient id="paint0_linear_748_79" x1="17.3227" y1="1.28426" x2="3.46208" y2="5.27336" gradientUnits="userSpaceOnUse">
<stop stop-color="#09F2C3"/>
<stop offset="1" stop-color="#15DCE4"/>
</linearGradient>
</defs>
</svg>
