<svg width="20" height="20" viewBox="0 0 20 20" fill="none" xmlns="http://www.w3.org/2000/svg">
<path d="M10 0C9.44771 0 9 0.447715 9 1V3C9 3.55228 9.44771 4 10 4C10.5523 4 11 3.55228 11 3V1C11 0.447715 10.5523 0 10 0Z" fill="black"/>
<path d="M10 15C12.7614 15 15 12.7614 15 10C15 7.23858 12.7614 5 10 5C7.23858 5 5 7.23858 5 10C5 12.7614 7.23858 15 10 15Z" fill="black"/>
<path d="M15.6569 2.92895C16.0474 2.53842 16.6806 2.53842 17.0711 2.92895C17.4616 3.31947 17.4616 3.95264 17.0711 4.34316L15.6569 5.75737C15.2664 6.1479 14.6332 6.1479 14.2427 5.75737C13.8522 5.36685 13.8522 4.73368 14.2427 4.34316L15.6569 2.92895Z" fill="black"/>
<path d="M20 10C20 9.44771 19.5523 9 19 9H17C16.4477 9 16 9.44771 16 10C16 10.5523 16.4477 11 17 11H19C19.5523 11 20 10.5523 20 10Z" fill="black"/>
<path d="M17.0711 15.6569C17.4616 16.0474 17.4616 16.6805 17.0711 17.0711C16.6806 17.4616 16.0474 17.4616 15.6569 17.0711L14.2427 15.6569C13.8521 15.2663 13.8521 14.6332 14.2427 14.2426C14.6332 13.8521 15.2664 13.8521 15.6569 14.2426L17.0711 15.6569Z" fill="black"/>
<path d="M11 17V19C11 19.5523 10.5523 20 10 20C9.44771 20 9 19.5523 9 19V17C9 16.4477 9.44771 16 10 16C10.5523 16 11 16.4477 11 17Z" fill="black"/>
<path d="M5.7574 14.2427C5.36688 13.8521 4.73371 13.8521 4.34319 14.2427L2.92897 15.6569C2.53845 16.0474 2.53845 16.6806 2.92897 17.0711C3.3195 17.4616 3.95266 17.4616 4.34319 17.0711L5.7574 15.6569C6.14792 15.2663 6.14792 14.6332 5.7574 14.2427Z" fill="black"/>
<path d="M3 9C3.55228 9 4 9.44771 4 10C4 10.5523 3.55228 11 3 11H1C0.447715 11 -1.19209e-07 10.5523 0 10C0 9.44771 0.447715 9 1 9H3Z" fill="black"/>
<path d="M5.75737 5.75735C6.14789 5.36683 6.14789 4.73366 5.75737 4.34314L4.34316 2.92893C3.95263 2.5384 3.31947 2.5384 2.92894 2.92893C2.53842 3.31945 2.53842 3.95262 2.92894 4.34314L4.34316 5.75735C4.73368 6.14788 5.36685 6.14788 5.75737 5.75735Z" fill="black"/>
</svg>
